<?xml version="1.0" encoding="utf-8"?>
<svg xmlns="http://www.w3.org/2000/svg" style="margin: auto; background: none; display: block; shape-rendering: auto;" width="280" height="253" preserveAspectRatio="xMidYMid">
<style type="text/css">
  text {
    text-anchor: middle; font-size: 32px; opacity: 0;
  }
</style>
<g style="transform-origin: 140px 126.5px; transform: scale(0.507937);">
<g transform="translate(140,126.5)">
  <g transform="translate(0,0)"><g class="path" style="transform: scale(0.91); transform-origin: -226.585px -4.78681px; animation: 1s linear -0.623333s infinite normal forwards running breath-7835c919-4c97-4725-a8ab-e31f818758ad;"><path d="M1.32-42.71L1.32-44.10L24.00-44.10L24.00-42.71L17.32-42.71L17.32-1.39L19.59-1.39L19.59-1.39Q24.95-1.39 28.13-4.66L28.13-4.66L28.13-4.66Q31.31-7.94 34.59-14.74L34.59-14.74L35.91-14.74L34.71 0L1.32 0L1.32-1.39L5.04-1.39L5.04-42.71L1.32-42.71" fill="#f8e8d5" stroke="none" stroke-width="none" transform="translate(-245.19992923736572,17.263190248277454)" style="fill: rgb(248, 232, 213);"></path></g><g class="path" style="transform: scale(0.91); transform-origin: -190.55px 2.26819px; animation: 1s linear -0.586667s infinite normal forwards running breath-7835c919-4c97-4725-a8ab-e31f818758ad;"><path d="M58.53-12.41L58.53-12.41L58.53-17.77L58.53-17.77Q58.53-23.88 57.87-26.68L57.87-26.68L57.87-26.68Q57.20-29.48 54.81-29.48L54.81-29.48L54.81-29.48Q53.42-29.48 52.57-28.70L52.57-28.70L52.57-28.70Q51.72-27.91 51.34-26.08L51.34-26.08L51.34-26.08Q50.78-23.25 50.78-17.45L50.78-17.45L50.78-12.54L50.78-12.54Q50.78-5.67 51.19-4.28L51.19-4.28L51.19-4.28Q51.60-2.90 52.04-2.02L52.04-2.02L52.04-2.02Q52.73-0.50 54.75-0.50L54.75-0.50L54.75-0.50Q57.20-0.50 57.96-3.34L57.96-3.34L57.96-3.34Q58.53-5.36 58.53-12.41zM54.62 0.63L54.62 0.63Q46.75 0.63 42.71-3.40L42.71-3.40L42.71-3.40Q38.68-7.43 38.68-14.96L38.68-14.96L38.68-14.96Q38.68-22.49 43.00-26.55L43.00-26.55L43.00-26.55Q47.31-30.62 55.13-30.62L55.13-30.62L55.13-30.62Q62.94-30.62 66.78-26.87L66.78-26.87L66.78-26.87Q70.62-23.12 70.62-15.44L70.62-15.44L70.62-15.44Q70.62 0.63 54.62 0.63L54.62 0.63" fill="#f8e8d5" stroke="none" stroke-width="none" transform="translate(-245.19992923736572,17.263190248277454)" style="fill: rgb(241, 236, 230);"></path></g><g class="path" style="transform: scale(0.91); transform-origin: -155.52px 2.26819px; animation: 1s linear -0.55s infinite normal forwards running breath-7835c919-4c97-4725-a8ab-e31f818758ad;"><path d="M87.51-14.80L87.51-14.80L89.33-14.80L89.33-19.66L89.33-19.66Q89.33-25.64 88.67-27.69L88.67-27.69L88.67-27.69Q88.01-29.74 86.12-29.74L86.12-29.74L86.12-29.74Q84.99-29.74 84.07-29.14L84.07-29.14L84.07-29.14Q83.16-28.54 83.16-27.50L83.16-27.50L83.16-27.50Q83.16-26.46 83.54-25.39L83.54-25.39L85.11-25.39L85.11-25.39Q85.62-24.07 85.62-22.21L85.62-22.21L85.62-22.21Q85.62-20.35 84.04-18.99L84.04-18.99L84.04-18.99Q82.47-17.64 80.07-17.64L80.07-17.64L80.07-17.64Q74.66-17.64 74.66-22.87L74.66-22.87L74.66-22.87Q74.66-30.62 87.82-30.62L87.82-30.62L87.82-30.62Q95.32-30.62 98.19-28.07L98.19-28.07L98.19-28.07Q101.05-25.52 101.05-18.71L101.05-18.71L101.05-5.92L101.05-5.92Q101.05-2.65 102.88-2.65L102.88-2.65L102.88-2.65Q105.02-2.65 105.40-9.13L105.40-9.13L106.34-9.07L106.34-9.07Q106.09-3.53 104.27-1.45L104.27-1.45L104.27-1.45Q102.44 0.63 98.28 0.63L98.28 0.63L98.28 0.63Q90.72 0.63 89.59-4.03L89.59-4.03L89.59-4.03Q88.77-1.64 87.13-0.50L87.13-0.50L87.13-0.50Q85.49 0.63 82.34 0.63L82.34 0.63L82.34 0.63Q73.02 0.63 73.02-6.99L73.02-6.99L73.02-6.99Q73.02-11.47 76.58-13.14L76.58-13.14L76.58-13.14Q80.14-14.80 87.51-14.80zM84.99-7.06L84.99-7.06Q84.99-3.78 85.33-2.83L85.33-2.83L85.33-2.83Q85.68-1.89 86.66-1.89L86.66-1.89L86.66-1.89Q87.63-1.89 88.48-3.50L88.48-3.50L88.48-3.50Q89.33-5.10 89.33-7.94L89.33-7.94L89.33-13.80L88.89-13.80L88.89-13.80Q84.99-13.80 84.99-8.06L84.99-8.06L84.99-7.06" fill="#f8e8d5" stroke="none" stroke-width="none" transform="translate(-245.19992923736572,17.263190248277454)" style="fill: rgb(248, 232, 213);"></path></g><g class="path" style="transform: scale(0.91); transform-origin: -120.21px -6.04681px; animation: 1s linear -0.513333s infinite normal forwards running breath-7835c919-4c97-4725-a8ab-e31f818758ad;"><path d="M119.76-13.04L119.76-13.04Q119.76-6.43 120.46-4.25L120.46-4.25L120.46-4.25Q121.15-2.08 123.01-2.08L123.01-2.08L123.01-2.08Q124.87-2.08 126.22-3.72L126.22-3.72L126.22-3.72Q127.58-5.36 127.58-8.57L127.58-8.57L127.58-22.30L127.58-22.30Q127.58-25.01 126.50-26.90L126.50-26.90L126.50-26.90Q125.43-28.79 123.35-28.79L123.35-28.79L123.35-28.79Q121.28-28.79 120.52-26.02L120.52-26.02L120.52-26.02Q119.76-23.25 119.76-16.32L119.76-16.32L119.76-13.04zM142.38 0L128.39 0L127.70-4.41L127.70-4.41Q125.56 0.63 119.01 0.63L119.01 0.63L119.01 0.63Q113.59 0.63 110.60-3.28L110.60-3.28L110.60-3.28Q107.60-7.18 107.60-14.93L107.60-14.93L107.60-14.93Q107.60-30.62 120.08-30.62L120.08-30.62L120.08-30.62Q125.62-30.62 127.39-27.53L127.39-27.53L127.39-46.12L123.54-46.12L123.54-47.25L139.29-47.25L139.29-1.13L142.38-1.13L142.38 0" fill="#f8e8d5" stroke="none" stroke-width="none" transform="translate(-245.19992923736572,17.263190248277454)" style="fill: rgb(241, 236, 230);"></path></g><g class="path" style="transform: scale(0.91); transform-origin: -91.7599px -22.9318px; animation: 1s linear -0.476667s infinite normal forwards running breath-7835c919-4c97-4725-a8ab-e31f818758ad;"><path d="M153.28-34.34L153.28-34.34L153.28-34.34Q149.94-34.34 148.52-36.04L148.52-36.04L148.52-36.04Q147.11-37.74 147.11-40.26L147.11-40.26L147.11-40.26Q147.11-42.78 148.65-44.41L148.65-44.41L148.65-44.41Q150.19-46.05 153.34-46.05L153.34-46.05L153.34-46.05Q156.49-46.05 158.13-44.57L158.13-44.57L158.13-44.57Q159.77-43.09 159.77-40.35L159.77-40.35L159.77-40.35Q159.77-37.61 158.19-35.97L158.19-35.97L158.19-35.97Q156.62-34.34 153.28-34.34" fill="#f8e8d5" stroke="none" stroke-width="none" transform="translate(-245.19992923736572,17.263190248277454)" style="fill: rgb(248, 232, 213);"></path></g><g class="path" style="transform: scale(0.91); transform-origin: -91.9499px 2.26819px; animation: 1s linear -0.44s infinite normal forwards running breath-7835c919-4c97-4725-a8ab-e31f818758ad;"><path d="M143.77-28.85L143.77-29.99L159.20-29.99L159.20-1.13L162.73-1.13L162.73 0L144.02 0L144.02-1.13L147.48-1.13L147.48-28.85L143.77-28.85" fill="#f8e8d5" stroke="none" stroke-width="none" transform="translate(-245.19992923736572,17.263190248277454)" style="fill: rgb(241, 236, 230);"></path></g><g class="path" style="transform: scale(0.91); transform-origin: -62.1499px 1.95319px; animation: 1s linear -0.403333s infinite normal forwards running breath-7835c919-4c97-4725-a8ab-e31f818758ad;"><path d="M164.12-28.85L164.12-29.99L179.30-29.99L179.30-24.19L179.30-24.19Q180.31-27.09 182.39-28.85L182.39-28.85L182.39-28.85Q184.46-30.62 188.69-30.62L188.69-30.62L188.69-30.62Q198.45-30.62 198.45-20.10L198.45-20.10L198.45-1.13L201.98-1.13L201.98 0L184.15 0L184.15-1.13L186.73-1.13L186.73-21.61L186.73-21.61Q186.73-25.39 186.23-26.49L186.23-26.49L186.23-26.49Q185.72-27.59 184.40-27.59L184.40-27.59L184.40-27.59Q182.39-27.59 180.84-24.95L180.84-24.95L180.84-24.95Q179.30-22.30 179.30-18.52L179.30-18.52L179.30-1.13L182.01-1.13L182.01 0L164.12 0L164.12-1.13L167.58-1.13L167.58-28.85L164.12-28.85" fill="#f8e8d5" stroke="none" stroke-width="none" transform="translate(-245.19992923736572,17.263190248277454)" style="fill: rgb(248, 232, 213);"></path></g><g class="path" style="transform: scale(0.91); transform-origin: -26.5899px 5.73319px; animation: 1s linear -0.366667s infinite normal forwards running breath-7835c919-4c97-4725-a8ab-e31f818758ad;"><path d="M228.06-33.26L228.06-33.26L229.82-34.34L229.82-34.34Q230.20-36.29 228.31-36.29L228.31-36.29L228.31-36.29Q225.60-36.29 225.60-32.13L225.60-32.13L225.60-32.13Q225.60-30.49 226.04-28.35L226.04-28.35L226.04-28.35Q230.83-25.14 230.83-20.13L230.83-20.13L230.83-20.13Q230.83-15.12 227.37-12.35L227.37-12.35L227.37-12.35Q223.90-9.58 217.98-9.58L217.98-9.58L217.98-9.58Q215.52-9.58 212.88-10.08L212.88-10.08L212.88-10.08Q210.10-8.32 210.10-7.43L210.10-7.43L210.10-7.43Q210.10-6.55 214.14-6.55L214.14-6.55L220.56-6.55L220.56-6.55Q234.86-6.55 234.86 3.72L234.86 3.72L234.86 3.72Q234.86 9.26 230.55 12.51L230.55 12.51L230.55 12.51Q226.23 15.75 217.10 15.75L217.10 15.75L217.10 15.75Q201.54 15.75 201.54 9.01L201.54 9.01L201.54 9.01Q201.54 5.36 206.39 3.97L206.39 3.97L210.17 5.67L210.17 5.67Q209.66 7.50 209.66 9.13L209.66 9.13L209.66 9.13Q209.66 14.55 217.73 14.55L217.73 14.55L217.73 14.55Q222.64 14.55 225.29 12.73L225.29 12.73L225.29 12.73Q227.93 10.90 227.93 8.19L227.93 8.19L227.93 8.19Q227.93 5.48 226.33 4.57L226.33 4.57L226.33 4.57Q224.72 3.65 219.93 3.65L219.93 3.65L213.82 3.65L213.82 3.65Q208.72 3.65 206.51 1.95L206.51 1.95L206.51 1.95Q204.31 0.25 204.31-2.24L204.31-2.24L204.31-2.24Q204.31-4.72 205.88-6.39L205.88-6.39L205.88-6.39Q207.46-8.06 211.49-10.52L211.49-10.52L211.49-10.52Q204.18-12.60 204.18-20.10L204.18-20.10L204.18-20.10Q204.18-24.82 207.59-27.72L207.59-27.72L207.59-27.72Q210.99-30.62 217.79-30.62L217.79-30.62L217.79-30.62Q221.89-30.62 224.78-29.04L224.78-29.04L224.78-29.04Q224.41-30.74 224.41-32.13L224.41-32.13L224.41-32.13Q224.41-35.66 226.30-37.23L226.30-37.23L226.30-37.23Q228.19-38.81 230.52-38.81L230.52-38.81L230.52-38.81Q232.85-38.81 234.27-37.58L234.27-37.58L234.27-37.58Q235.68-36.35 235.68-34.21L235.68-34.21L235.68-34.21Q235.68-32.07 234.55-31.03L234.55-31.03L234.55-31.03Q233.41-29.99 231.81-29.99L231.81-29.99L231.81-29.99Q230.20-29.99 229.16-30.84L229.16-30.84L229.16-30.84Q228.12-31.69 228.06-33.26zM214.70-21.48L214.70-21.48L214.70-18.08L214.70-18.08Q214.70-13.86 215.43-12.35L215.43-12.35L215.43-12.35Q216.15-10.84 217.63-10.84L217.63-10.84L217.63-10.84Q219.11-10.84 219.78-12.32L219.78-12.32L219.78-12.32Q220.44-13.80 220.44-18.40L220.44-18.40L220.44-21.48L220.44-21.48Q220.44-26.40 219.81-27.94L219.81-27.94L219.81-27.94Q219.18-29.48 217.70-29.48L217.70-29.48L217.70-29.48Q216.22-29.48 215.46-27.88L215.46-27.88L215.46-27.88Q214.70-26.27 214.70-21.48" fill="#f8e8d5" stroke="none" stroke-width="none" transform="translate(-245.19992923736572,17.263190248277454)" style="fill: rgb(241, 236, 230);"></path></g><g class="path" style="transform: scale(0.91); transform-origin: 23.0551px -4.97681px; animation: 1s linear -0.33s infinite normal forwards running breath-7835c919-4c97-4725-a8ab-e31f818758ad;"><path d="M269.14-1.20L273.61-1.20L269.01-14.80L256.54-14.80L251.69-1.20L256.41-1.20L256.41 0L246.77 0L246.77-1.20L249.73-1.20L265.80-44.48L270.96-44.48L286.84-1.20L289.74-1.20L289.74 0L269.14 0L269.14-1.20zM268.51-16.19L263.02-32.70L257.10-16.19L268.51-16.19" fill="#f8e8d5" stroke="none" stroke-width="none" transform="translate(-245.19992923736572,17.263190248277454)" style="fill: rgb(248, 232, 213);"></path></g><g class="path" style="transform: scale(0.91); transform-origin: 54.7751px -6.36181px; animation: 1s linear -0.293333s infinite normal forwards running breath-7835c919-4c97-4725-a8ab-e31f818758ad;"><path d="M290.49-46.12L290.49-47.25L305.93-47.25L305.93-1.13L309.46-1.13L309.46 0L290.75 0L290.75-1.13L294.21-1.13L294.21-46.12L290.49-46.12" fill="#f8e8d5" stroke="none" stroke-width="none" transform="translate(-245.19992923736572,17.263190248277454)" style="fill: rgb(241, 236, 230);"></path></g><g class="path" style="transform: scale(0.91); transform-origin: 80.741px 2.26819px; animation: 1s linear -0.256667s infinite normal forwards running breath-7835c919-4c97-4725-a8ab-e31f818758ad;"><path d="M327.22 0.63L327.22 0.63Q319.10 0.63 315.03-3.56L315.03-3.56L315.03-3.56Q310.97-7.75 310.97-15.21L310.97-15.21L310.97-15.21Q310.97-22.68 315.54-26.65L315.54-26.65L315.54-26.65Q320.10-30.62 327.16-30.62L327.16-30.62L327.16-30.62Q341.46-30.62 340.89-16.25L340.89-16.25L323.13-16.25L323.13-13.80L323.13-13.80Q323.13-7.62 324.70-4.47L324.70-4.47L324.70-4.47Q326.28-1.32 330.18-1.32L330.18-1.32L330.18-1.32Q337.49-1.32 339.76-9.13L339.76-9.13L340.89-8.95L340.89-8.95Q339.70-4.41 336.58-1.89L336.58-1.89L336.58-1.89Q333.46 0.63 327.22 0.63L327.22 0.63zM323.19-20.60L323.19-17.51L329.68-17.51L329.68-20.60L329.68-20.60Q329.68-25.70 329.08-27.56L329.08-27.56L329.08-27.56Q328.48-29.42 326.69-29.42L326.69-29.42L326.69-29.42Q324.89-29.42 324.04-27.44L324.04-27.44L324.04-27.44Q323.19-25.45 323.19-20.60L323.19-20.60" fill="#f8e8d5" stroke="none" stroke-width="none" transform="translate(-245.19992923736572,17.263190248277454)" style="fill: rgb(248, 232, 213);"></path></g><g class="path" style="transform: scale(0.91); transform-origin: 113.775px 5.73319px; animation: 1s linear -0.22s infinite normal forwards running breath-7835c919-4c97-4725-a8ab-e31f818758ad;"><path d="M368.42-33.26L368.42-33.26L370.19-34.34L370.19-34.34Q370.57-36.29 368.68-36.29L368.68-36.29L368.68-36.29Q365.97-36.29 365.97-32.13L365.97-32.13L365.97-32.13Q365.97-30.49 366.41-28.35L366.41-28.35L366.41-28.35Q371.20-25.14 371.20-20.13L371.20-20.13L371.20-20.13Q371.20-15.12 367.73-12.35L367.73-12.35L367.73-12.35Q364.27-9.58 358.34-9.58L358.34-9.58L358.34-9.58Q355.89-9.58 353.24-10.08L353.24-10.08L353.24-10.08Q350.47-8.32 350.47-7.43L350.47-7.43L350.47-7.43Q350.47-6.55 354.50-6.55L354.50-6.55L360.93-6.55L360.93-6.55Q375.23-6.55 375.23 3.72L375.23 3.72L375.23 3.72Q375.23 9.26 370.91 12.51L370.91 12.51L370.91 12.51Q366.60 15.75 357.46 15.75L357.46 15.75L357.46 15.75Q341.90 15.75 341.90 9.01L341.90 9.01L341.90 9.01Q341.90 5.36 346.75 3.97L346.75 3.97L350.53 5.67L350.53 5.67Q350.03 7.50 350.03 9.13L350.03 9.13L350.03 9.13Q350.03 14.55 358.09 14.55L358.09 14.55L358.09 14.55Q363.01 14.55 365.65 12.73L365.65 12.73L365.65 12.73Q368.30 10.90 368.30 8.19L368.30 8.19L368.30 8.19Q368.30 5.48 366.69 4.57L366.69 4.57L366.69 4.57Q365.08 3.65 360.30 3.65L360.30 3.65L354.19 3.65L354.19 3.65Q349.08 3.65 346.88 1.95L346.88 1.95L346.88 1.95Q344.67 0.25 344.67-2.24L344.67-2.24L344.67-2.24Q344.67-4.72 346.25-6.39L346.25-6.39L346.25-6.39Q347.82-8.06 351.86-10.52L351.86-10.52L351.86-10.52Q344.55-12.60 344.55-20.10L344.55-20.10L344.55-20.10Q344.55-24.82 347.95-27.72L347.95-27.72L347.95-27.72Q351.35-30.62 358.16-30.62L358.16-30.62L358.16-30.62Q362.25-30.62 365.15-29.04L365.15-29.04L365.15-29.04Q364.77-30.74 364.77-32.13L364.77-32.13L364.77-32.13Q364.77-35.66 366.66-37.23L366.66-37.23L366.66-37.23Q368.55-38.81 370.88-38.81L370.88-38.81L370.88-38.81Q373.21-38.81 374.63-37.58L374.63-37.58L374.63-37.58Q376.05-36.35 376.05-34.21L376.05-34.21L376.05-34.21Q376.05-32.07 374.91-31.03L374.91-31.03L374.91-31.03Q373.78-29.99 372.17-29.99L372.17-29.99L372.17-29.99Q370.57-29.99 369.53-30.84L369.53-30.84L369.53-30.84Q368.49-31.69 368.42-33.26zM355.07-21.48L355.07-21.48L355.07-18.08L355.07-18.08Q355.07-13.86 355.79-12.35L355.79-12.35L355.79-12.35Q356.52-10.84 358.00-10.84L358.00-10.84L358.00-10.84Q359.48-10.84 360.14-12.32L360.14-12.32L360.14-12.32Q360.80-13.80 360.80-18.40L360.80-18.40L360.80-21.48L360.80-21.48Q360.80-26.40 360.17-27.94L360.17-27.94L360.17-27.94Q359.54-29.48 358.06-29.48L358.06-29.48L358.06-29.48Q356.58-29.48 355.82-27.88L355.82-27.88L355.82-27.88Q355.07-26.27 355.07-21.48" fill="#f8e8d5" stroke="none" stroke-width="none" transform="translate(-245.19992923736572,17.263190248277454)" style="fill: rgb(241, 236, 230);"></path></g><g class="path" style="transform: scale(0.91); transform-origin: 146px 1.95319px; animation: 1s linear -0.183333s infinite normal forwards running breath-7835c919-4c97-4725-a8ab-e31f818758ad;"><path d="M397.09-28.22L397.09-28.22L397.09-28.22Q394.76-28.22 392.99-25.20L392.99-25.20L392.99-25.20Q391.23-22.18 391.23-18.02L391.23-18.02L391.23-1.13L395.70-1.13L395.70 0L376.05 0L376.05-1.13L379.51-1.13L379.51-28.85L376.05-28.85L376.05-29.99L391.23-29.99L391.23-23.94L391.23-23.94Q392.05-27.15 394.38-28.89L394.38-28.89L394.38-28.89Q396.71-30.62 399.67-30.62L399.67-30.62L399.67-30.62Q402.63-30.62 404.49-28.95L404.49-28.95L404.49-28.95Q406.35-27.28 406.35-24.22L406.35-24.22L406.35-24.22Q406.35-21.17 404.96-19.53L404.96-19.53L404.96-19.53Q403.58-17.89 400.71-17.89L400.71-17.89L400.71-17.89Q397.85-17.89 396.49-19.78L396.49-19.78L396.49-19.78Q395.14-21.67 396.14-25.01L396.14-25.01L398.41-25.01L398.41-25.01Q399.99-28.22 397.09-28.22" fill="#f8e8d5" stroke="none" stroke-width="none" transform="translate(-245.19992923736572,17.263190248277454)" style="fill: rgb(248, 232, 213);"></path></g><g class="path" style="transform: scale(0.91); transform-origin: 171.45px -22.9318px; animation: 1s linear -0.146667s infinite normal forwards running breath-7835c919-4c97-4725-a8ab-e31f818758ad;"><path d="M416.49-34.34L416.49-34.34L416.49-34.34Q413.15-34.34 411.74-36.04L411.74-36.04L411.74-36.04Q410.32-37.74 410.32-40.26L410.32-40.26L410.32-40.26Q410.32-42.78 411.86-44.41L411.86-44.41L411.86-44.41Q413.41-46.05 416.56-46.05L416.56-46.05L416.56-46.05Q419.71-46.05 421.34-44.57L421.34-44.57L421.34-44.57Q422.98-43.09 422.98-40.35L422.98-40.35L422.98-40.35Q422.98-37.61 421.41-35.97L421.41-35.97L421.41-35.97Q419.83-34.34 416.49-34.34" fill="#f8e8d5" stroke="none" stroke-width="none" transform="translate(-245.19992923736572,17.263190248277454)" style="fill: rgb(241, 236, 230);"></path></g><g class="path" style="transform: scale(0.91); transform-origin: 171.26px 2.26819px; animation: 1s linear -0.11s infinite normal forwards running breath-7835c919-4c97-4725-a8ab-e31f818758ad;"><path d="M406.98-28.85L406.98-29.99L422.42-29.99L422.42-1.13L425.94-1.13L425.94 0L407.23 0L407.23-1.13L410.70-1.13L410.70-28.85L406.98-28.85" fill="#f8e8d5" stroke="none" stroke-width="none" transform="translate(-245.19992923736572,17.263190248277454)" style="fill: rgb(248, 232, 213);"></path></g><g class="path" style="transform: scale(0.91); transform-origin: 199.295px 2.26819px; animation: 1s linear -0.0733333s infinite normal forwards running breath-7835c919-4c97-4725-a8ab-e31f818758ad;"><path d="M442.32-14.80L442.32-14.80L444.15-14.80L444.15-19.66L444.15-19.66Q444.15-25.64 443.49-27.69L443.49-27.69L443.49-27.69Q442.83-29.74 440.94-29.74L440.94-29.74L440.94-29.74Q439.80-29.74 438.89-29.14L438.89-29.14L438.89-29.14Q437.98-28.54 437.98-27.50L437.98-27.50L437.98-27.50Q437.98-26.46 438.35-25.39L438.35-25.39L439.93-25.39L439.93-25.39Q440.43-24.07 440.43-22.21L440.43-22.21L440.43-22.21Q440.43-20.35 438.86-18.99L438.86-18.99L438.86-18.99Q437.28-17.64 434.89-17.64L434.89-17.64L434.89-17.64Q429.47-17.64 429.47-22.87L429.47-22.87L429.47-22.87Q429.47-30.62 442.64-30.62L442.64-30.62L442.64-30.62Q450.14-30.62 453.00-28.07L453.00-28.07L453.00-28.07Q455.87-25.52 455.87-18.71L455.87-18.71L455.87-5.92L455.87-5.92Q455.87-2.65 457.70-2.65L457.70-2.65L457.70-2.65Q459.84-2.65 460.22-9.13L460.22-9.13L461.16-9.07L461.16-9.07Q460.91-3.53 459.08-1.45L459.08-1.45L459.08-1.45Q457.25 0.63 453.10 0.63L453.10 0.63L453.10 0.63Q445.54 0.63 444.40-4.03L444.40-4.03L444.40-4.03Q443.58-1.64 441.95-0.50L441.95-0.50L441.95-0.50Q440.31 0.63 437.16 0.63L437.16 0.63L437.16 0.63Q427.83 0.63 427.83-6.99L427.83-6.99L427.83-6.99Q427.83-11.47 431.39-13.14L431.39-13.14L431.39-13.14Q434.95-14.80 442.32-14.80zM439.80-7.06L439.80-7.06Q439.80-3.78 440.15-2.83L440.15-2.83L440.15-2.83Q440.50-1.89 441.47-1.89L441.47-1.89L441.47-1.89Q442.45-1.89 443.30-3.50L443.30-3.50L443.30-3.50Q444.15-5.10 444.15-7.94L444.15-7.94L444.15-13.80L443.71-13.80L443.71-13.80Q439.80-13.80 439.80-8.06L439.80-8.06L439.80-7.06" fill="#f8e8d5" stroke="none" stroke-width="none" transform="translate(-245.19992923736572,17.263190248277454)" style="fill: rgb(241, 236, 230);"></path></g><g class="path" style="transform: scale(0.91); transform-origin: 224.31px 12.4132px; animation: 1s linear -0.0366667s infinite normal forwards running breath-7835c919-4c97-4725-a8ab-e31f818758ad;"><path d="M469.44 0.63L469.44 0.63L469.44 0.63Q466.70 0.63 465.35-0.98L465.35-0.98L465.35-0.98Q464.00-2.58 464.00-4.88L464.00-4.88L464.00-4.88Q464.00-7.18 465.41-8.76L465.41-8.76L465.41-8.76Q466.83-10.33 469.41-10.33L469.41-10.33L469.41-10.33Q472.00-10.33 473.51-9.01L473.51-9.01L473.51-9.01Q475.02-7.69 475.02-5.04L475.02-5.04L475.02-5.04Q475.02-2.39 473.60-0.88L473.60-0.88L473.60-0.88Q472.19 0.63 469.44 0.63" fill="#f8e8d5" stroke="none" stroke-width="none" transform="translate(-245.19992923736572,17.263190248277454)" style="fill: rgb(248, 232, 213);"></path></g><g class="path" style="transform: scale(0.91); transform-origin: 241.005px 12.4132px; animation: 1s linear 0s infinite normal forwards running breath-7835c919-4c97-4725-a8ab-e31f818758ad;"><path d="M486.14 0.63L486.14 0.63L486.14 0.63Q483.40 0.63 482.04-0.98L482.04-0.98L482.04-0.98Q480.69-2.58 480.69-4.88L480.69-4.88L480.69-4.88Q480.69-7.18 482.11-8.76L482.11-8.76L482.11-8.76Q483.53-10.33 486.11-10.33L486.11-10.33L486.11-10.33Q488.69-10.33 490.20-9.01L490.20-9.01L490.20-9.01Q491.72-7.69 491.72-5.04L491.72-5.04L491.72-5.04Q491.72-2.39 490.30-0.88L490.30-0.88L490.30-0.88Q488.88 0.63 486.14 0.63" fill="#f8e8d5" stroke="none" stroke-width="none" transform="translate(-245.19992923736572,17.263190248277454)" style="fill: rgb(241, 236, 230);"></path></g></g>
</g>
</g>
<style id="breath-7835c919-4c97-4725-a8ab-e31f818758ad" data-anikit="">@keyframes breath-7835c919-4c97-4725-a8ab-e31f818758ad
{
  0% {
    animation-timing-function: cubic-bezier(0.9647,0.2413,-0.0705,0.7911);
    transform: scale(0.9099999999999999);
  }
  51% {
    animation-timing-function: cubic-bezier(0.9226,0.2631,-0.0308,0.7628);
    transform: scale(1.02994);
  }
  100% {
    transform: scale(0.9099999999999999);
  }
}</style></svg>